<?xml version="1.0" encoding="UTF-8" standalone="no"?>
<svg
   width="500"
   height="500"
   viewBox="0 0 500 500"
   version="1.1"
   id="svg2"
   sodipodi:docname="logo.svg"
   inkscape:version="1.4 (86a8ad7, 2024-10-11)"
   inkscape:export-filename="logo.png"
   inkscape:export-xdpi="196.608"
   inkscape:export-ydpi="196.608"
   xmlns:inkscape="http://www.inkscape.org/namespaces/inkscape"
   xmlns:sodipodi="http://sodipodi.sourceforge.net/DTD/sodipodi-0.dtd"
   xmlns:xlink="http://www.w3.org/1999/xlink"
   xmlns="http://www.w3.org/2000/svg"
   xmlns:svg="http://www.w3.org/2000/svg">
  <defs
     id="defs2">
    <linearGradient
       id="linearGradient4"
       inkscape:collect="always">
      <stop
         style="stop-color:#ff4040;stop-opacity:1;"
         offset="0"
         id="stop3" />
      <stop
         style="stop-color:#4d0002;stop-opacity:1;"
         offset="1"
         id="stop4" />
    </linearGradient>
    <linearGradient
       id="linearGradient2"
       inkscape:collect="always">
      <stop
         style="stop-color:#ff4040;stop-opacity:1;"
         offset="0"
         id="stop1" />
      <stop
         style="stop-color:#580002;stop-opacity:1;"
         offset="1"
         id="stop2" />
    </linearGradient>
    <linearGradient
       id="linearGradient62"
       inkscape:collect="always">
      <stop
         style="stop-color:#5587ff;stop-opacity:1;"
         offset="0"
         id="stop61" />
      <stop
         style="stop-color:#002566;stop-opacity:1;"
         offset="1"
         id="stop62" />
    </linearGradient>
    <linearGradient
       id="linearGradient60"
       inkscape:collect="always">
      <stop
         style="stop-color:#5587ff;stop-opacity:1;"
         offset="0"
         id="stop59" />
      <stop
         style="stop-color:#002566;stop-opacity:1;"
         offset="1"
         id="stop60" />
    </linearGradient>
    <linearGradient
       id="linearGradient58"
       inkscape:collect="always">
      <stop
         style="stop-color:#5587ff;stop-opacity:1;"
         offset="0"
         id="stop57" />
      <stop
         style="stop-color:#002566;stop-opacity:1;"
         offset="1"
         id="stop58" />
    </linearGradient>
    <inkscape:path-effect
       effect="bspline"
       id="path-effect2"
       is_visible="true"
       lpeversion="1.3"
       weight="33.333333"
       steps="2"
       helper_size="0"
       apply_no_weight="true"
       apply_with_weight="true"
       only_selected="false"
       uniform="false" />
    <inkscape:path-effect
       effect="bspline"
       id="path-effect1"
       is_visible="true"
       lpeversion="1.3"
       weight="33.333333"
       steps="2"
       helper_size="0"
       apply_no_weight="true"
       apply_with_weight="true"
       only_selected="false"
       uniform="false" />
    <inkscape:path-effect
       effect="bspline"
       id="path-effect9"
       is_visible="true"
       lpeversion="1.3"
       weight="33.333333"
       steps="2"
       helper_size="0"
       apply_no_weight="true"
       apply_with_weight="true"
       only_selected="false"
       uniform="false" />
    <inkscape:path-effect
       effect="bspline"
       id="path-effect8"
       is_visible="true"
       lpeversion="1.3"
       weight="33.333333"
       steps="2"
       helper_size="0"
       apply_no_weight="true"
       apply_with_weight="true"
       only_selected="false"
       uniform="false" />
    <inkscape:path-effect
       effect="bspline"
       id="path-effect7"
       is_visible="true"
       lpeversion="1.3"
       weight="33.333333"
       steps="2"
       helper_size="0"
       apply_no_weight="true"
       apply_with_weight="true"
       only_selected="false"
       uniform="false" />
    <inkscape:path-effect
       effect="bspline"
       id="path-effect6"
       is_visible="true"
       lpeversion="1.3"
       weight="33.333333"
       steps="2"
       helper_size="0"
       apply_no_weight="true"
       apply_with_weight="true"
       only_selected="false"
       uniform="false" />
    <inkscape:path-effect
       effect="bspline"
       id="path-effect5"
       is_visible="true"
       lpeversion="1.3"
       weight="33.333333"
       steps="2"
       helper_size="0"
       apply_no_weight="true"
       apply_with_weight="true"
       only_selected="false"
       uniform="false" />
    <inkscape:path-effect
       effect="bspline"
       id="path-effect7-8"
       is_visible="true"
       lpeversion="1.3"
       weight="33.333333"
       steps="2"
       helper_size="0"
       apply_no_weight="true"
       apply_with_weight="true"
       only_selected="false"
       uniform="false" />
    <inkscape:path-effect
       effect="bspline"
       id="path-effect8-5"
       is_visible="true"
       lpeversion="1.3"
       weight="33.333333"
       steps="2"
       helper_size="0"
       apply_no_weight="true"
       apply_with_weight="true"
       only_selected="false"
       uniform="false" />
    <inkscape:path-effect
       effect="bspline"
       id="path-effect9-7"
       is_visible="true"
       lpeversion="1.3"
       weight="33.333333"
       steps="2"
       helper_size="0"
       apply_no_weight="true"
       apply_with_weight="true"
       only_selected="false"
       uniform="false" />
    <inkscape:path-effect
       effect="bspline"
       id="path-effect7-9"
       is_visible="true"
       lpeversion="1.3"
       weight="33.333333"
       steps="2"
       helper_size="0"
       apply_no_weight="true"
       apply_with_weight="true"
       only_selected="false"
       uniform="false" />
    <inkscape:path-effect
       effect="bspline"
       id="path-effect9-4"
       is_visible="true"
       lpeversion="1.3"
       weight="33.333333"
       steps="2"
       helper_size="0"
       apply_no_weight="true"
       apply_with_weight="true"
       only_selected="false"
       uniform="false" />
    <inkscape:path-effect
       effect="bspline"
       id="path-effect2-8"
       is_visible="true"
       lpeversion="1.3"
       weight="33.333333"
       steps="2"
       helper_size="0"
       apply_no_weight="true"
       apply_with_weight="true"
       only_selected="false"
       uniform="false" />
    <inkscape:path-effect
       effect="bspline"
       id="path-effect7-4"
       is_visible="true"
       lpeversion="1.3"
       weight="33.333333"
       steps="2"
       helper_size="0"
       apply_no_weight="true"
       apply_with_weight="true"
       only_selected="false"
       uniform="false" />
    <inkscape:path-effect
       effect="bspline"
       id="path-effect9-6"
       is_visible="true"
       lpeversion="1.3"
       weight="33.333333"
       steps="2"
       helper_size="0"
       apply_no_weight="true"
       apply_with_weight="true"
       only_selected="false"
       uniform="false" />
    <inkscape:path-effect
       effect="bspline"
       id="path-effect2-4"
       is_visible="true"
       lpeversion="1.3"
       weight="33.333333"
       steps="2"
       helper_size="0"
       apply_no_weight="true"
       apply_with_weight="true"
       only_selected="false"
       uniform="false" />
    <inkscape:path-effect
       effect="bspline"
       id="path-effect7-4-2"
       is_visible="true"
       lpeversion="1.3"
       weight="33.333333"
       steps="2"
       helper_size="0"
       apply_no_weight="true"
       apply_with_weight="true"
       only_selected="false"
       uniform="false" />
    <inkscape:path-effect
       effect="bspline"
       id="path-effect9-6-5"
       is_visible="true"
       lpeversion="1.3"
       weight="33.333333"
       steps="2"
       helper_size="0"
       apply_no_weight="true"
       apply_with_weight="true"
       only_selected="false"
       uniform="false" />
    <inkscape:path-effect
       effect="bspline"
       id="path-effect2-4-0"
       is_visible="true"
       lpeversion="1.3"
       weight="33.333333"
       steps="2"
       helper_size="0"
       apply_no_weight="true"
       apply_with_weight="true"
       only_selected="false"
       uniform="false" />
    <radialGradient
       inkscape:collect="always"
       xlink:href="#linearGradient60"
       id="radialGradient1"
       cx="263.56323"
       cy="284.09915"
       fx="263.56323"
       fy="284.09915"
       r="99.868111"
       gradientTransform="matrix(1.927533,0,0,1.7323528,-245.14412,-210.86446)"
       gradientUnits="userSpaceOnUse" />
    <radialGradient
       inkscape:collect="always"
       xlink:href="#linearGradient58"
       id="radialGradient2"
       cx="258.98178"
       cy="356.65219"
       fx="258.98178"
       fy="356.65219"
       r="96.870872"
       gradientTransform="matrix(1.5912581,0.27737999,-0.35271735,2.0234494,-27.665028,-447.99938)"
       gradientUnits="userSpaceOnUse" />
    <radialGradient
       inkscape:collect="always"
       xlink:href="#linearGradient62"
       id="radialGradient3"
       cx="307.63861"
       cy="348.64569"
       fx="307.63861"
       fy="348.64569"
       r="46.376598"
       gradientTransform="matrix(1.4979691,0.35976981,-0.40695199,1.6944209,-11.396933,-368.10402)"
       gradientUnits="userSpaceOnUse" />
    <radialGradient
       inkscape:collect="always"
       xlink:href="#linearGradient4"
       id="radialGradient2-0"
       cx="258.98178"
       cy="356.65219"
       fx="258.98178"
       fy="356.65219"
       r="96.870872"
       gradientTransform="matrix(1.5912581,0.27737999,-0.35271735,2.0234494,-27.665028,-447.99938)"
       gradientUnits="userSpaceOnUse" />
    <linearGradient
       id="linearGradient58-9"
       inkscape:collect="always">
      <stop
         style="stop-color:#ff4040;stop-opacity:1;"
         offset="0"
         id="stop57-4" />
      <stop
         style="stop-color:#470002;stop-opacity:1;"
         offset="1"
         id="stop58-8" />
    </linearGradient>
    <inkscape:path-effect
       effect="bspline"
       id="path-effect7-4-8"
       is_visible="true"
       lpeversion="1.3"
       weight="33.333333"
       steps="2"
       helper_size="0"
       apply_no_weight="true"
       apply_with_weight="true"
       only_selected="false"
       uniform="false" />
    <radialGradient
       inkscape:collect="always"
       xlink:href="#linearGradient58-9"
       id="radialGradient1-2"
       cx="263.56323"
       cy="284.09915"
       fx="263.56323"
       fy="284.09915"
       r="99.868111"
       gradientTransform="matrix(1.927533,0,0,1.7323528,-245.14412,-210.86446)"
       gradientUnits="userSpaceOnUse" />
    <inkscape:path-effect
       effect="bspline"
       id="path-effect9-6-1"
       is_visible="true"
       lpeversion="1.3"
       weight="33.333333"
       steps="2"
       helper_size="0"
       apply_no_weight="true"
       apply_with_weight="true"
       only_selected="false"
       uniform="false" />
    <radialGradient
       inkscape:collect="always"
       xlink:href="#linearGradient2"
       id="radialGradient3-7"
       cx="307.63861"
       cy="348.64569"
       fx="307.63861"
       fy="348.64569"
       r="46.376598"
       gradientTransform="matrix(1.0893558,0.34534363,-0.62596845,1.9745618,190.66743,-461.33588)"
       gradientUnits="userSpaceOnUse" />
    <inkscape:path-effect
       effect="bspline"
       id="path-effect2-4-2"
       is_visible="true"
       lpeversion="1.3"
       weight="33.333333"
       steps="2"
       helper_size="0"
       apply_no_weight="true"
       apply_with_weight="true"
       only_selected="false"
       uniform="false" />
  </defs>
  <sodipodi:namedview
     id="namedview2"
     pagecolor="#ffffff"
     bordercolor="#666666"
     borderopacity="1.0"
     inkscape:showpageshadow="2"
     inkscape:pageopacity="0.0"
     inkscape:pagecheckerboard="0"
     inkscape:deskcolor="#d1d1d1"
     inkscape:zoom="1.4142136"
     inkscape:cx="129.04698"
     inkscape:cy="246.42671"
     inkscape:window-width="2560"
     inkscape:window-height="1017"
     inkscape:window-x="-8"
     inkscape:window-y="-8"
     inkscape:window-maximized="1"
     inkscape:current-layer="layer1" />
  <g
     inkscape:groupmode="layer"
     id="layer1"
     inkscape:label="outline"
     style="display:inline">
    <path
       style="display:inline;fill:url(#radialGradient2);fill-opacity:1;stroke:#000000;stroke-width:1px;stroke-linecap:butt;stroke-linejoin:miter;stroke-opacity:0"
       d="m 257.97612,401.2831 c -2.12132,-1.06066 -3.65338,-3.18198 -3.77122,-14.96731 -0.11784,-11.78533 1.1785,-33.23381 2.59273,-46.55104 1.41422,-13.31722 2.94626,-18.50257 6.83541,-25.22017 3.88914,-6.71759 10.13513,-14.96701 22.45076,-25.39696 12.31563,-10.42995 30.70004,-23.03977 48.55466,-33.76431 17.85462,-10.72454 35.17839,-19.5632 52.3259,-30.70026 17.1475,-11.13707 34.11773,-24.57183 43.31013,-31.52505 9.1924,-6.95322 10.60659,-7.42462 12.07974,-7.18891 1.47316,0.23572 3.00519,1.1785 3.88907,3.53556 0.88389,2.35706 1.11959,6.12823 -0.47144,14.26008 -1.59102,8.13185 -5.00864,20.62382 -14.73151,33.4108 -9.72288,12.78698 -25.75031,25.86819 -37.41765,33.76424 -11.66733,7.89606 -18.97396,10.60658 -28.9325,13.61182 -9.95855,3.00524 -22.56837,6.305 -32.11437,9.54594 -9.54601,3.24093 -16.0277,6.42285 -22.03816,11.0191 -6.01046,4.59626 -11.54936,10.60654 -15.43847,15.67418 -3.88911,5.06765 -6.12823,9.19235 -7.60138,13.25825 -1.47314,4.06591 -2.18023,8.07277 -1.47311,10.48873 0.70713,2.41595 2.82841,3.24089 9.19247,3.29981 6.36407,0.0589 16.97046,-0.64817 22.74518,-0.76602 5.77471,-0.11784 6.7175,0.35355 7.30676,1.41423 0.58926,1.06067 0.82496,2.71056 0.47139,4.94976 -0.35356,2.2392 -1.29635,5.06757 -3.59448,8.48529 -2.29814,3.41772 -5.95145,7.42458 -15.6154,14.26005 -9.66395,6.83546 -25.33783,16.49905 -34.53024,21.33095 -9.19242,4.8319 -11.90295,4.8319 -14.02427,3.77124 z"
       id="path7-9"
       inkscape:original-d="m 257.38687,402.34376 c -1.53207,-2.12132 -3.06413,-4.24264 -4.5962,-6.36396 1.29639,-21.44934 2.59273,-42.89782 3.88909,-64.34672 1.5321,-5.18555 3.06413,-10.3709 4.59619,-15.55635 6.24624,-8.24974 12.49222,-16.49916 18.73833,-24.74874 18.38515,-12.61032 36.76956,-25.22014 55.15433,-37.83021 17.32447,-8.83901 34.64824,-17.67767 51.97235,-26.5165 16.9709,-13.4353 33.94113,-26.87006 50.91169,-40.30509 1.41424,-0.47141 2.82843,-0.94281 4.24264,-1.41421 1.5321,0.94282 3.06413,1.88561 4.59619,2.82842 0.23571,3.77131 0.47141,7.54248 0.70711,11.31371 -3.41775,12.49247 -6.83536,24.98444 -10.25305,37.47666 -16.02807,13.08174 -32.0555,26.16295 -48.08326,39.24443 -7.30691,2.71063 -14.61354,5.42115 -21.92031,8.13173 -12.61032,3.29989 -25.22014,6.59966 -37.83021,9.89949 -6.48194,3.18204 -12.96363,6.36396 -19.44544,9.54594 -5.53911,6.01053 -11.078,12.02082 -16.61701,18.03122 -2.23921,4.12488 -4.47834,8.24958 -6.71751,12.37437 -0.70712,4.00702 -1.41421,8.01388 -2.12132,12.02082 2.12136,0.82497 4.24264,1.64991 6.36396,2.47487 10.60681,-0.70712 21.2132,-1.41421 31.8198,-2.12132 0.94283,0.47142 1.88562,0.94281 2.82843,1.41422 0.23571,1.64994 0.47141,3.29983 0.70711,4.94974 -0.94283,2.82849 -1.88562,5.65686 -2.82843,8.48528 -3.65346,4.00702 -7.30677,8.01388 -10.96015,12.02082 -15.67452,9.66399 -31.3484,19.32758 -47.0226,28.99138 -2.71063,0 -5.42116,0 -8.13173,0 z"
       inkscape:path-effect="#path-effect7-4"
       transform="matrix(-1,0,0,1,497.89777,2.03243)" />
    <path
       style="display:inline;fill:url(#radialGradient1);fill-opacity:1;stroke:#000000;stroke-width:1px;stroke-linecap:butt;stroke-linejoin:miter;stroke-opacity:0"
       d="m 267.27714,289.22298 c 3.54476,-2.60903 9.90872,-8.38374 23.62428,-18.24032 13.71555,-9.85658 34.78185,-23.79448 55.71126,-36.76369 20.9294,-12.96921 41.72065,-24.96897 56.38741,-35.34406 14.66675,-10.37509 23.20824,-19.12491 30.22913,-29.45836 7.02089,-10.33346 12.52078,-22.24988 16.77081,-32.79164 4.25003,-10.54176 7.24997,-19.70824 8.12496,-25.24993 0.87498,-5.54169 -0.37499,-7.45831 -1.67709,-8.54165 -1.3021,-1.08334 -2.65623,-1.33333 -4.03125,-0.95832 -1.37501,0.37501 -2.77082,1.37499 -6.5973,5.58069 -3.82648,4.20569 -10.08336,11.61678 -14.9502,17.10494 -4.86684,5.48816 -8.34338,9.05308 -13.58783,13.3547 -5.24445,4.30162 -12.25645,9.33965 -20.76474,15.30993 -8.50829,5.97028 -18.51234,12.87244 -32.4313,20.88618 -13.91897,8.01373 -31.75195,17.13855 -45.77288,24.0761 -14.02094,6.93755 -24.22907,11.68745 -32.14579,16.87501 -7.91672,5.18755 -13.54161,10.81244 -17.19028,16.02439 -3.64868,5.21194 -5.32096,10.01064 -6.45175,14.26623 -1.13079,4.25559 -1.72003,7.96782 -2.13251,13.12387 -0.41248,5.15606 -0.64818,11.75559 -0.69969,16.28131 -0.0515,4.52572 0.0812,6.97741 0.24649,8.94287 0.1653,1.96547 0.36321,3.4446 0.75905,4.53315 0.39584,1.08855 0.98958,1.78645 1.64925,2.41373 0.65966,0.62729 1.3852,1.1839 4.92997,-1.42513 z"
       id="path9-6"
       inkscape:original-d="m 264.45794,292.38865 c 6.36396,-5.7747 12.72792,-11.54941 19.09188,-17.32411 21.06715,-13.93846 42.13345,-27.87636 63.20018,-41.81454 20.79208,-12.00024 41.58333,-24 62.375,-36 8.54184,-8.75018 17.08333,-17.5 25.625,-26.25 5.50011,-11.91691 11,-23.83333 16.5,-35.75 3.00006,-9.16685 6,-18.33333 9,-27.5 -1.25003,-1.91671 -2.5,-3.83333 -3.75,-5.75 -1.3542,-0.25001 -2.70833,-0.5 -4.0625,-0.75 -1.39586,1.00002 -2.79167,2 -4.1875,3 -6.25713,7.41139 -12.51401,14.82248 -18.77102,22.23373 -3.47668,3.56506 -6.95322,7.12999 -10.42982,10.69499 -7.01229,5.03823 -14.02429,10.07627 -21.03643,15.1144 C 388.00829,159.19555 378.00424,166.09771 368,173 c -17.83369,9.12518 -35.66667,18.25 -53.5,27.375 -10.20854,4.75009 -20.41667,9.5 -30.625,14.25 -5.62511,5.62511 -11.25,11.25 -16.875,16.875 -1.67235,4.79889 -3.34463,9.59759 -5.01694,14.39638 -0.58927,3.71239 -1.17851,7.42462 -1.76777,11.13693 -0.2357,6.5998 -0.4714,13.19933 -0.7071,19.79899 0.13269,2.45178 0.26537,4.90347 0.39806,7.3552 0.19792,1.4792 0.39583,2.95833 0.59375,4.4375 0.59376,0.69793 1.1875,1.39583 1.78125,2.09375 0.72558,0.55665 1.45112,1.11327 2.17669,1.6699 z"
       inkscape:path-effect="#path-effect9-6"
       transform="matrix(-1,0,0,1,501.89777,-1.96757)" />
    <path
       style="display:inline;fill:url(#radialGradient3);fill-opacity:1;stroke:#000000;stroke-width:1px;stroke-linecap:butt;stroke-linejoin:miter;stroke-opacity:0"
       d="m 302.14817,333.25551 c 1.37742,-2.80094 4.5594,-7.86854 8.59585,-12.25853 4.03645,-4.38999 8.92717,-8.10223 16.32243,-11.60833 7.39526,-3.50611 17.29455,-6.80587 25.42635,-9.33969 8.13179,-2.53382 14.49562,-4.30155 20.27038,-6.62914 5.77475,-2.32759 10.9601,-5.21488 14.20102,-6.57016 3.24092,-1.35529 4.53725,-1.17852 5.30329,-0.26515 0.76604,0.91336 1.00173,2.56324 0.47139,5.48009 -0.53035,2.91686 -1.82668,7.10049 -5.18549,11.34318 -3.35881,4.24268 -8.77986,8.54416 -15.55638,12.55114 -6.77652,4.00697 -14.90809,7.71921 -24.59193,10.89574 -9.68384,3.17652 -20.91935,5.81715 -27.96432,7.39792 -7.04498,1.58076 -9.89909,2.10159 -12.16994,2.40367 -2.27085,0.30208 -3.95832,0.38542 -5.01564,0.15994 -1.05732,-0.22548 -1.48444,-0.75974 -0.10701,-3.56068 z"
       id="path2-3"
       inkscape:original-d="m 300.34361,335.52217 c 3.18198,-5.0676 6.36396,-10.1352 9.54594,-15.2028 4.89092,-3.71238 9.78164,-7.42462 14.67246,-11.13693 9.8997,-3.2999 19.79899,-6.59966 29.69849,-9.89949 6.36409,-1.76781 12.72792,-3.53554 19.09188,-5.30331 5.18555,-2.88741 10.3709,-5.7747 15.55635,-8.66205 1.29639,0.17678 2.59272,0.35355 3.88909,0.53033 0.2357,1.64995 0.4714,3.29983 0.7071,4.94974 -1.29638,4.1838 -2.59272,8.36743 -3.88908,12.55115 -5.42126,4.30165 -10.84231,8.60313 -16.26346,12.9047 -8.13189,3.71238 -16.26346,7.42462 -24.39518,11.13693 -11.23596,2.64074 -22.47147,5.28137 -33.7072,7.92206 -2.85422,0.52084 -5.70833,1.04167 -8.5625,1.5625 -1.68753,0.0833 -3.375,0.16667 -5.0625,0.25 -0.42714,-0.53429 -0.85426,-1.06855 -1.28139,-1.60283 z"
       inkscape:path-effect="#path-effect2-4"
       transform="matrix(-1,0,0,1,497.89777,2.03243)" />
    <path
       style="display:inline;fill:url(#radialGradient2-0);fill-opacity:1;stroke:#000000;stroke-width:1px;stroke-linecap:butt;stroke-linejoin:miter;stroke-opacity:0"
       d="m 257.97612,401.2831 c -2.12132,-1.06066 -3.65338,-3.18198 -3.77122,-14.96731 -0.11784,-11.78533 1.1785,-33.23381 2.59273,-46.55104 1.41422,-13.31722 2.94626,-18.50257 6.83541,-25.22017 3.88914,-6.71759 10.13513,-14.96701 22.45076,-25.39696 12.31563,-10.42995 30.70004,-23.03977 48.55466,-33.76431 17.85462,-10.72454 35.17839,-19.5632 52.3259,-30.70026 17.1475,-11.13707 34.11773,-24.57183 43.31013,-31.52505 9.1924,-6.95322 10.60659,-7.42462 12.07974,-7.18891 1.47316,0.23572 3.00519,1.1785 3.88907,3.53556 0.88389,2.35706 1.11959,6.12823 -0.47144,14.26008 -1.59102,8.13185 -5.00864,20.62382 -14.73151,33.4108 -9.72288,12.78698 -25.75031,25.86819 -37.41765,33.76424 -11.66733,7.89606 -18.97396,10.60658 -28.9325,13.61182 -9.95855,3.00524 -22.56837,6.305 -32.11437,9.54594 -9.54601,3.24093 -16.0277,6.42285 -22.03816,11.0191 -6.01046,4.59626 -11.54936,10.60654 -15.43847,15.67418 -3.88911,5.06765 -6.12823,9.19235 -7.60138,13.25825 -1.47314,4.06591 -2.18023,8.07277 -1.47311,10.48873 0.70713,2.41595 2.82841,3.24089 9.19247,3.29981 6.36407,0.0589 16.97046,-0.64817 22.74518,-0.76602 5.77471,-0.11784 6.7175,0.35355 7.30676,1.41423 0.58926,1.06067 0.82496,2.71056 0.47139,4.94976 -0.35356,2.2392 -1.29635,5.06757 -3.59448,8.48529 -2.29814,3.41772 -5.95145,7.42458 -15.6154,14.26005 -9.66395,6.83546 -25.33783,16.49905 -34.53024,21.33095 -9.19242,4.8319 -11.90295,4.8319 -14.02427,3.77124 z"
       id="path7-9-7"
       inkscape:original-d="m 257.38687,402.34376 c -1.53207,-2.12132 -3.06413,-4.24264 -4.5962,-6.36396 1.29639,-21.44934 2.59273,-42.89782 3.88909,-64.34672 1.5321,-5.18555 3.06413,-10.3709 4.59619,-15.55635 6.24624,-8.24974 12.49222,-16.49916 18.73833,-24.74874 18.38515,-12.61032 36.76956,-25.22014 55.15433,-37.83021 17.32447,-8.83901 34.64824,-17.67767 51.97235,-26.5165 16.9709,-13.4353 33.94113,-26.87006 50.91169,-40.30509 1.41424,-0.47141 2.82843,-0.94281 4.24264,-1.41421 1.5321,0.94282 3.06413,1.88561 4.59619,2.82842 0.23571,3.77131 0.47141,7.54248 0.70711,11.31371 -3.41775,12.49247 -6.83536,24.98444 -10.25305,37.47666 -16.02807,13.08174 -32.0555,26.16295 -48.08326,39.24443 -7.30691,2.71063 -14.61354,5.42115 -21.92031,8.13173 -12.61032,3.29989 -25.22014,6.59966 -37.83021,9.89949 -6.48194,3.18204 -12.96363,6.36396 -19.44544,9.54594 -5.53911,6.01053 -11.078,12.02082 -16.61701,18.03122 -2.23921,4.12488 -4.47834,8.24958 -6.71751,12.37437 -0.70712,4.00702 -1.41421,8.01388 -2.12132,12.02082 2.12136,0.82497 4.24264,1.64991 6.36396,2.47487 10.60681,-0.70712 21.2132,-1.41421 31.8198,-2.12132 0.94283,0.47142 1.88562,0.94281 2.82843,1.41422 0.23571,1.64994 0.47141,3.29983 0.70711,4.94974 -0.94283,2.82849 -1.88562,5.65686 -2.82843,8.48528 -3.65346,4.00702 -7.30677,8.01388 -10.96015,12.02082 -15.67452,9.66399 -31.3484,19.32758 -47.0226,28.99138 -2.71063,0 -5.42116,0 -8.13173,0 z"
       inkscape:path-effect="#path-effect7-4-8"
       transform="translate(3.2719032,2.0215372)" />
    <path
       style="display:inline;fill:url(#radialGradient1-2);fill-opacity:1;stroke:#000000;stroke-width:1px;stroke-linecap:butt;stroke-linejoin:miter;stroke-opacity:0"
       d="m 267.27714,289.22298 c 3.54476,-2.60903 9.90872,-8.38374 23.62428,-18.24032 13.71555,-9.85658 34.78185,-23.79448 55.71126,-36.76369 20.9294,-12.96921 41.72065,-24.96897 56.38741,-35.34406 14.66675,-10.37509 23.20824,-19.12491 30.22913,-29.45836 7.02089,-10.33346 12.52078,-22.24988 16.77081,-32.79164 4.25003,-10.54176 7.24997,-19.70824 8.12496,-25.24993 0.87498,-5.54169 -0.37499,-7.45831 -1.67709,-8.54165 -1.3021,-1.08334 -2.65623,-1.33333 -4.03125,-0.95832 -1.37501,0.37501 -2.77082,1.37499 -6.5973,5.58069 -3.82648,4.20569 -10.08336,11.61678 -14.9502,17.10494 -4.86684,5.48816 -8.34338,9.05308 -13.58783,13.3547 -5.24445,4.30162 -12.25645,9.33965 -20.76474,15.30993 -8.50829,5.97028 -18.51234,12.87244 -32.4313,20.88618 -13.91897,8.01373 -31.75195,17.13855 -45.77288,24.0761 -14.02094,6.93755 -24.22907,11.68745 -32.14579,16.87501 -7.91672,5.18755 -13.54161,10.81244 -17.19028,16.02439 -3.64868,5.21194 -5.32096,10.01064 -6.45175,14.26623 -1.13079,4.25559 -1.72003,7.96782 -2.13251,13.12387 -0.41248,5.15606 -0.64818,11.75559 -0.69969,16.28131 -0.0515,4.52572 0.0812,6.97741 0.24649,8.94287 0.1653,1.96547 0.36321,3.4446 0.75905,4.53315 0.39584,1.08855 0.98958,1.78645 1.64925,2.41373 0.65966,0.62729 1.3852,1.1839 4.92997,-1.42513 z"
       id="path9-6-6"
       inkscape:original-d="m 264.45794,292.38865 c 6.36396,-5.7747 12.72792,-11.54941 19.09188,-17.32411 21.06715,-13.93846 42.13345,-27.87636 63.20018,-41.81454 20.79208,-12.00024 41.58333,-24 62.375,-36 8.54184,-8.75018 17.08333,-17.5 25.625,-26.25 5.50011,-11.91691 11,-23.83333 16.5,-35.75 3.00006,-9.16685 6,-18.33333 9,-27.5 -1.25003,-1.91671 -2.5,-3.83333 -3.75,-5.75 -1.3542,-0.25001 -2.70833,-0.5 -4.0625,-0.75 -1.39586,1.00002 -2.79167,2 -4.1875,3 -6.25713,7.41139 -12.51401,14.82248 -18.77102,22.23373 -3.47668,3.56506 -6.95322,7.12999 -10.42982,10.69499 -7.01229,5.03823 -14.02429,10.07627 -21.03643,15.1144 C 388.00829,159.19555 378.00424,166.09771 368,173 c -17.83369,9.12518 -35.66667,18.25 -53.5,27.375 -10.20854,4.75009 -20.41667,9.5 -30.625,14.25 -5.62511,5.62511 -11.25,11.25 -16.875,16.875 -1.67235,4.79889 -3.34463,9.59759 -5.01694,14.39638 -0.58927,3.71239 -1.17851,7.42462 -1.76777,11.13693 -0.2357,6.5998 -0.4714,13.19933 -0.7071,19.79899 0.13269,2.45178 0.26537,4.90347 0.39806,7.3552 0.19792,1.4792 0.39583,2.95833 0.59375,4.4375 0.59376,0.69793 1.1875,1.39583 1.78125,2.09375 0.72558,0.55665 1.45112,1.11327 2.17669,1.6699 z"
       inkscape:path-effect="#path-effect9-6-1"
       transform="translate(-0.72809678,-1.9784627)" />
    <path
       style="display:inline;fill:url(#radialGradient3-7);fill-opacity:1;stroke:#000000;stroke-width:1px;stroke-linecap:butt;stroke-linejoin:miter;stroke-opacity:0"
       d="m 302.14817,333.25551 c 1.37742,-2.80094 4.5594,-7.86854 8.59585,-12.25853 4.03645,-4.38999 8.92717,-8.10223 16.32243,-11.60833 7.39526,-3.50611 17.29455,-6.80587 25.42635,-9.33969 8.13179,-2.53382 14.49562,-4.30155 20.27038,-6.62914 5.77475,-2.32759 10.9601,-5.21488 14.20102,-6.57016 3.24092,-1.35529 4.53725,-1.17852 5.30329,-0.26515 0.76604,0.91336 1.00173,2.56324 0.47139,5.48009 -0.53035,2.91686 -1.82668,7.10049 -5.18549,11.34318 -3.35881,4.24268 -8.77986,8.54416 -15.55638,12.55114 -6.77652,4.00697 -14.90809,7.71921 -24.59193,10.89574 -9.68384,3.17652 -20.91935,5.81715 -27.96432,7.39792 -7.04498,1.58076 -9.89909,2.10159 -12.16994,2.40367 -2.27085,0.30208 -3.95832,0.38542 -5.01564,0.15994 -1.05732,-0.22548 -1.48444,-0.75974 -0.10701,-3.56068 z"
       id="path2-3-1"
       inkscape:original-d="m 300.34361,335.52217 c 3.18198,-5.0676 6.36396,-10.1352 9.54594,-15.2028 4.89092,-3.71238 9.78164,-7.42462 14.67246,-11.13693 9.8997,-3.2999 19.79899,-6.59966 29.69849,-9.89949 6.36409,-1.76781 12.72792,-3.53554 19.09188,-5.30331 5.18555,-2.88741 10.3709,-5.7747 15.55635,-8.66205 1.29639,0.17678 2.59272,0.35355 3.88909,0.53033 0.2357,1.64995 0.4714,3.29983 0.7071,4.94974 -1.29638,4.1838 -2.59272,8.36743 -3.88908,12.55115 -5.42126,4.30165 -10.84231,8.60313 -16.26346,12.9047 -8.13189,3.71238 -16.26346,7.42462 -24.39518,11.13693 -11.23596,2.64074 -22.47147,5.28137 -33.7072,7.92206 -2.85422,0.52084 -5.70833,1.04167 -8.5625,1.5625 -1.68753,0.0833 -3.375,0.16667 -5.0625,0.25 -0.42714,-0.53429 -0.85426,-1.06855 -1.28139,-1.60283 z"
       inkscape:path-effect="#path-effect2-4-2"
       transform="translate(3.2719032,2.0215372)" />
  </g>
</svg>
